<svg xmlns="http://www.w3.org/2000/svg" viewBox="0 0 64 64" width="32" height="32">
  <g>
    <g>
      <path fill="currentColor" d="M62.166,36.715l-8.748-17.531c0.192-0.248,0.31-0.555,0.31-0.894c0-0.809-0.657-1.467-1.467-1.467H35.73 c0.711-0.231,1.225-0.897,1.225-1.684c0-0.978-0.792-1.771-1.77-1.771h-0.651c0.966-0.754,1.59-1.926,1.59-3.246 C36.123,7.845,34.277,6,32,6s-4.122,1.846-4.122,4.122c0,1.32,0.624,2.492,1.588,3.246h-0.65c-0.978,0-1.771,0.793-1.771,1.771 c0,0.787,0.515,1.453,1.226,1.684H11.907l-0.003-0.005l-0.003,0.005H11.74c-0.811,0-1.468,0.657-1.468,1.467 c0,0.389,0.154,0.738,0.399,1L1.833,36.999c-0.139,0.277-0.174,0.576-0.127,0.859c-0.006,0.056-0.009,0.111-0.001,0.168 c0.497,5.196,4.874,9.259,10.2,9.259c5.326,0,9.703-4.063,10.201-9.259c0.005-0.057,0.002-0.112-0.001-0.168 c0.046-0.283,0.01-0.582-0.128-0.859l-8.604-17.24H30.02v33.848H16.367c-1.644,0-2.975,1.333-2.975,2.975 c0,0.783,0.635,1.418,1.418,1.418h34.381c0.783,0,1.418-0.635,1.418-1.418c0-1.643-1.332-2.975-2.975-2.975H33.979V19.759h16.507 l-8.462,16.956c-0.139,0.277-0.174,0.576-0.127,0.859c-0.006,0.055-0.009,0.111-0.001,0.167C42.392,42.938,46.769,47,52.095,47 c5.326,0,9.703-4.063,10.201-9.259c0.005-0.057,0.002-0.112-0.001-0.167C62.341,37.291,62.304,36.992,62.166,36.715L62.166,36.715 z M4.981,37.037l6.923-13.873l6.923,13.873H4.981z M45.172,36.754l6.923-13.873l6.923,13.873H45.172z M45.172,36.754"/>
    </g>
  </g>
</svg>
